<svg width="40" height="40" viewBox="0 0 40 40" fill="none" xmlns="http://www.w3.org/2000/svg">
    <path d="M31.533 10.017C31.2 9.033 30.267 8.333 29.167 8.333h-18.333c-1.1 0 -2.017 0.7 -2.367 1.683L5 20v13.333c0 0.917 0.75 1.667 1.667 1.667h1.667c0.917 0 1.667 -0.75 1.667 -1.667v-1.667h20v1.667c0 0.917 0.75 1.667 1.667 1.667h1.667c0.917 0 1.667 -0.75 1.667 -1.667v-13.333l-3.467 -9.983zM10.833 26.667c-1.383 0 -2.5 -1.117 -2.5 -2.5S9.45 21.667 10.833 21.667s2.5 1.117 2.5 2.5S12.217 26.667 10.833 26.667zm18.333 0c-1.383 0 -2.5 -1.117 -2.5 -2.5s1.117 -2.5 2.5 -2.5 2.5 1.117 2.5 2.5 -1.117 2.5 -2.5 2.5zM8.333 18.333l2.5 -7.5h18.333L31.667 18.333H8.333z" fill="white" />
</svg>